<svg width="247" height="214" viewBox="0 0 247 214" fill="none" xmlns="http://www.w3.org/2000/svg">
<path d="M113.068 42.7251C113.068 42.7251 107.924 42.9729 105.755 41.6718C103.586 40.4326 95.0947 35.5377 95.0947 35.5377C95.0947 35.5377 91.4999 36.4671 88.2151 36.3432C84.9302 36.1573 84.1245 34.9181 82.1412 33.9887C80.0959 33.0593 79.3521 32.2538 79.3521 32.2538L79.786 28.1025C79.786 28.1025 79.1042 27.6068 78.6084 28.9079C78.1126 30.2091 77.1829 33.6169 77.1829 33.6169C77.1829 33.6169 75.1996 32.3158 74.8277 33.2452C74.4558 34.1746 76.1293 41.5478 75.1996 44.9557C75.1996 44.9557 75.0136 49.045 73.6501 54.1877C72.2866 59.3924 72.7824 68.1908 69.6835 72.7139C66.5846 77.237 61.9981 80.7067 51.2139 85.5396C40.4296 90.3725 32.3724 92.6651 25.4928 103.694C18.6132 114.723 15.8241 113.36 11.9195 121.353C8.01484 129.346 6.4034 136.037 4.11019 144.278C1.81699 152.519 -0.724132 154.811 0.88731 163.795C2.49875 172.718 3.18052 179.843 9.37837 184.242C15.5762 188.642 23.6334 190.191 29.5834 186.969C35.5333 183.747 46.1316 174.143 46.1316 174.143C46.1316 174.143 45.6978 164.477 46.5655 159.706C47.4952 154.873 50.904 149.607 52.5154 143.844C54.1269 138.082 53.4451 137.648 55.4904 134.922C57.5357 132.196 59.0232 131.576 59.0232 131.576L58.9612 130.213C58.9612 130.213 54.9326 130.957 51.4618 129.098C47.991 127.301 41.0494 124.451 39.0041 122.84C36.9588 121.229 35.8432 121.353 35.5333 119.37C35.3474 118.131 34.8516 117.573 34.9755 116.892C39.0661 113.236 43.5905 109.146 45.016 107.845C47.4332 105.677 50.2222 104.376 52.7633 101.092C55.3664 97.8078 58.2175 94.4 62.494 94.7717C66.7705 95.2054 70.1793 97.1262 72.3486 101.092C74.5798 105.057 75.5715 106.358 75.5715 106.358C75.5715 106.358 79.2902 106.482 79.4141 108.155C79.4761 109.828 79.1042 110.572 79.1042 110.572L80.6537 112.183C80.6537 112.183 82.8229 113.05 83.1948 113.546C83.5047 114.041 92.7395 107.35 101.788 104.499C110.837 101.649 114.184 97.0023 114.432 94.7098C114.68 92.3553 115.734 77.6707 116.229 65.2786C116.663 53.0724 113.068 42.7251 113.068 42.7251ZM22.7038 126.681C21.2783 128.85 20.2866 130.771 18.1793 133.187C15.4523 136.285 11.7955 143.534 10.1841 144.092C8.57265 144.65 8.88254 141.985 10.432 139.011C12.0434 136.099 17.4356 129.469 20.5345 127.549C21.4642 126.991 22.2699 126.557 23.0137 126.186C22.9517 126.248 22.8897 126.31 22.8897 126.371C22.8277 126.495 22.7657 126.557 22.7038 126.681Z" fill="#F0D5B8"/>
<path d="M80.0959 31.9441C80.0959 31.3864 80.2818 28.6602 80.0959 25.3143C79.91 22.0304 80.0339 17.8791 80.9016 13.7277C81.8313 9.5764 81.6454 3.8141 86.0458 1.21176C90.4463 -1.39057 94.9088 0.282361 101.355 5.42506C105.383 8.647 111.085 13.6658 114.742 17.0116C116.911 18.9944 118.399 20.3575 118.399 20.3575C118.399 20.3575 116.477 22.1543 115.734 23.0837C114.99 24.0131 114.246 24.0131 114.246 25.1284C114.246 26.3057 114.68 26.8633 113.812 27.421C113.006 27.9786 110.775 28.5982 111.333 30.5809C111.891 32.5637 113.378 32.8115 113.378 32.8115L117.035 31.2625L122.179 33.9887V35.4758C122.179 35.4758 119.018 34.5464 118.151 37.7064C117.283 40.9283 117.965 41.3001 117.965 41.3001L113.564 42.6012C113.564 42.6012 113.75 42.4773 113.13 42.2914C112.511 42.1055 110.837 42.7251 107.49 41.7957C104.144 40.8663 95.0327 34.9181 95.0327 34.9181C95.0327 34.9181 90.9421 36.5911 87.5953 35.9095C84.3104 35.2279 80.0959 31.9441 80.0959 31.9441Z" fill="#3C2922"/>
<path d="M35.7192 117.077C35.7192 117.077 35.8432 118.812 36.1531 119.928C36.463 121.043 41.0494 123.273 42.0411 124.141C43.0327 125.008 49.7884 127.487 51.0279 128.354C52.2675 129.222 54.2508 129.346 55.9862 129.779C57.6596 130.275 58.4034 129.779 58.4034 129.779C58.4034 129.779 56.8539 121.291 57.2258 119.866C57.5977 118.441 61.7502 108.899 62.8039 107.783C63.7955 106.668 65.9028 106.668 66.3366 107.845C66.7705 109.023 65.159 111.563 64.5393 112.802C63.9195 114.041 63.5476 117.449 63.5476 117.449L63.3617 118.626L64.5393 117.201C64.5393 117.201 68.258 111.315 70.8611 109.642C73.4642 107.969 75.7574 107.288 75.7574 107.288C75.7574 107.288 69.3736 98.2415 68.258 97.3121C67.1424 96.3827 62.6799 93.5945 59.0851 95.6392C55.4904 97.6838 53.9409 101.525 51.8956 102.827C49.8503 104.066 43.0947 111.315 40.9254 112.616C38.6942 113.979 35.7192 117.077 35.7192 117.077Z" fill="#3C2922"/>
<path d="M123.357 57.7814L122.551 53.1344C122.551 53.1344 120.568 51.3376 120.134 49.7266C119.7 48.1156 119.266 46.0709 119.514 44.46C119.762 42.849 119.762 42.849 119.762 42.849C119.762 42.849 118.337 40.9902 118.337 40.1847C118.337 39.3792 118.399 37.3965 120.01 36.0953C121.312 35.042 122.551 36.0334 122.551 36.0334L122.489 33.9267L117.097 30.8907C117.097 30.8907 114.06 32.6256 113.626 32.5016C113.192 32.3777 111.271 31.2624 111.953 29.6515C112.697 28.1025 114.618 27.6068 114.68 27.3589C114.742 27.1111 114.246 25.5001 114.866 24.5707C115.486 23.6413 118.832 20.3574 118.832 20.3574C118.832 20.3574 122.923 20.2955 123.915 20.2955C124.163 20.2955 125.464 19.6139 126.146 19.5519C126.828 19.49 131.6 19.8617 132.84 20.977C134.141 22.1543 135.319 25.0044 136.124 26.5535C136.93 28.1025 139.409 30.4569 139.223 33.555C139.037 36.653 138.046 44.0882 138.046 44.0882L138.418 46.5666L138.852 49.045C138.852 49.045 135.691 56.852 133.149 58.6489C130.608 60.4457 126.642 60.2598 125.774 59.8261C124.906 59.3924 123.357 57.7814 123.357 57.7814Z" fill="#3C2922"/>
<path d="M163.271 198.06C163.271 198.06 155.71 194.28 153.912 191.244C152.115 188.208 147.776 182.941 146.227 181.144C144.678 179.348 142.26 178.294 141.021 173.771C139.533 168.195 140.029 164.663 140.835 162.804C141.641 160.945 151.557 147.81 153.54 146.199C155.524 144.588 160.668 141.614 162.279 141.304C162.279 141.304 168.725 139.445 172.63 138.764C176.535 138.082 182.361 135.418 189.426 135.17C196.492 134.922 216.387 135.294 218.184 145.765C219.238 152.147 217.688 158.529 218.308 164.663C218.432 166.026 220.477 172.47 220.353 175.94C219.919 184.8 220.229 193.227 213.288 194.404C206.346 195.643 184.716 200.476 180.377 200.104C176.039 199.733 163.271 198.06 163.271 198.06Z" fill="#3C2922"/>
<path d="M162.217 198.431C162.217 198.431 162.403 200.91 163.457 201.901C164.511 202.893 169.035 203.14 171.576 203.822C174.117 204.504 179.943 203.016 180.501 202.087C181.121 201.158 181.121 200.724 181.121 200.724C181.121 200.724 171.824 199.733 170.956 199.671C170.089 199.609 162.217 198.431 162.217 198.431Z" fill="#3C2922"/>
<path d="M162.217 140.684C162.217 140.684 162.899 137.772 164.697 136.409C166.494 135.046 175.667 134.055 176.411 133.745C177.154 133.435 180.439 132.692 181.741 132.568C183.042 132.444 185.088 133.497 185.15 134.241C185.212 134.984 185.274 135.108 185.274 135.108C185.274 135.108 179.881 136.285 178.89 136.533C177.898 136.719 173.188 138.268 171.39 138.516C169.531 138.764 162.589 140.437 162.217 140.684Z" fill="#3C2922"/>
<path d="M189.612 133.993C189.612 133.993 191.347 133.993 193.517 132.939C195.686 131.886 200.892 130.957 201.76 131.576C202.627 132.196 203.185 133.373 204.549 133.621C205.912 133.869 211.986 134.488 213.846 135.046C215.643 135.604 224.63 135.046 226.799 137.834C228.968 140.622 229.96 139.073 231.571 139.507C233.183 139.879 238.699 143.039 238.885 145.269C239.071 147.438 237.707 147.438 239.071 148.615C240.434 149.792 244.215 153.138 243.409 155.741C242.604 158.343 241.612 157.104 242.418 159.52C243.223 161.937 245.393 162.308 243.595 165.84C241.798 169.372 244.029 169.744 244.959 170.797C246.632 172.656 247.438 178.108 245.455 179.286C243.471 180.463 243.409 184.057 243.595 185.42C243.781 186.783 245.579 189.757 242.604 191.182C239.629 192.545 239.815 193.536 239.071 196.139C238.327 198.741 238.265 200.91 235.29 200.29C232.315 199.671 233.679 201.096 231.324 202.459C228.968 203.822 225.993 202.831 223.824 202.645C221.655 202.459 221.035 204.999 217.874 204.627C214.713 204.256 214.713 202.025 212.73 202.459C210.747 202.83 207.214 205.805 204.425 205.247C201.636 204.627 198.103 204.441 195.686 205.433C193.331 206.424 195.5 205.805 191.533 206.424C187.567 207.044 187.195 208.407 184.406 206.61C181.617 204.813 180.625 202.892 180.625 202.892C180.625 202.892 181.679 201.343 181.927 200.662C182.113 200.042 182.113 200.042 182.113 200.042C182.113 200.042 186.947 200.042 188.558 199.671C190.17 199.299 210.809 195.581 212.482 195.209C214.093 194.776 217.874 193.598 219.486 189.323C221.097 185.048 221.283 172.222 220.229 168.443C219.176 164.725 219.176 164.725 219.176 164.725C219.176 164.725 220.787 145.641 218.618 141.862C216.449 138.144 203.743 135.542 201.264 135.046C198.785 134.55 189.798 134.674 189.798 134.674L189.612 133.993Z" fill="#25191C"/>
<path d="M171.142 128.045C170.275 125.38 165.688 112.555 163.953 108.961C163.829 108.651 158.995 95.8252 158.871 90.9923C158.747 86.1594 153.664 68.5007 150.937 62.3047C148.272 56.1087 142.88 48.3017 141.331 46.0092C139.781 43.7166 138.294 44.1504 138.294 44.1504C138.294 44.1504 139.533 47.2484 139.099 49.0452C138.666 50.8421 133.831 60.5698 132.158 60.8796C130.484 61.1894 124.968 61.0036 123.543 58.773C122.117 56.4805 121.25 52.2672 121.25 52.2672L119.266 50.2844C119.142 50.5942 118.585 53.1346 119.576 55.3652C120.568 57.5957 123.853 62.2428 124.039 63.7918C124.225 65.3408 125.836 73.6435 127.076 82.5038C128.315 91.426 131.6 99.5428 133.335 104.809C135.071 110.138 136.001 111.191 136.001 111.687C136.001 112.183 136.186 116.086 136.186 116.086C136.186 116.086 132.778 118.255 132.096 117.945C131.476 117.635 126.146 113.732 126.146 113.732L114.432 98.1178C114.432 98.1178 104.949 106.049 97.8837 107.288C95.2186 107.784 89.1448 111.377 82.575 115.714C82.575 115.776 82.575 115.838 82.513 115.9C82.2032 116.954 81.7073 117.511 81.6453 117.573C81.7693 117.573 85.2401 116.52 86.4177 118.379C87.6573 120.3 88.2151 121.229 87.4713 121.972C86.7276 122.716 83.8146 125.442 83.0709 126.062C82.3271 126.681 79.662 131.267 79.4761 132.382C79.2902 133.497 79.2902 133.497 79.2902 133.497L81.9552 135.418C81.9552 135.418 83.9386 131.824 85.0542 130.647C86.1698 129.47 89.7645 124.699 90.5083 124.451C91.252 124.203 94.8468 124.885 94.9088 126.558C95.0327 128.23 89.7645 135.666 89.0828 136.657C88.401 137.648 87.3474 141.676 84.3104 144.402C81.3355 147.128 78.7943 149.235 74.084 147.996C69.3736 146.757 61.5023 146.323 61.5023 146.323C61.5023 146.323 63.1757 144.278 63.3617 142.977C63.3617 142.977 62.556 139.507 61.6883 137.401C60.8206 135.294 59.581 133.249 59.457 132.568C59.457 132.444 59.3951 132.32 59.3951 132.196C58.7753 132.63 58.4034 132.939 58.2175 133.063C56.4821 134.303 56.2961 134.303 55.1805 136.347C54.0029 138.392 54.0029 144.96 52.0196 147.686C50.0363 150.412 47.3712 156.298 47.1233 158.653C46.8754 161.069 46.9374 174.948 46.9374 174.948L56.2961 185.172C56.2961 185.172 56.1722 184.676 55.9862 183.871C56.606 185.234 57.2258 186.659 57.5357 187.464C58.2175 189.447 63.9815 196.573 68.6299 201.715C73.2782 206.858 80.2198 210.018 86.0458 212.001C91.8718 213.983 111.209 213.798 119.514 213.674C127.819 213.488 133.769 212.496 139.409 207.849C145.049 203.202 148.334 194.776 149.512 192.607C150.689 190.439 151.309 188.642 151.309 188.642C151.309 188.642 144.863 183.499 144.368 183.499C144.182 183.499 141.269 183.623 137.674 183.809C141.207 183.003 143.686 182.322 143.81 182.198C144.244 181.64 136.31 176.126 135.195 174.019C134.079 171.912 130.918 167.947 135.195 160.698C139.471 153.51 141.579 149.669 145.917 147.81C150.318 145.951 153.726 144.96 153.726 144.96C153.726 144.96 159.676 140.746 161.536 140.87C161.536 140.87 162.403 136.657 165.192 135.666C168.043 134.674 175.543 133.559 175.543 133.559C175.543 133.559 172.01 130.709 171.142 128.045ZM56.73 176.064C56.2341 177.179 55.6763 178.17 55.2425 178.914C54.8706 176.497 54.5607 173.895 54.7467 172.47C55.1805 169.062 53.0732 163.548 54.6847 160.636C56.0482 158.095 55.9862 155.617 55.9243 155.121C56.0482 156.175 56.9779 164.849 56.606 167.823C56.1102 170.921 57.7836 173.709 56.73 176.064ZM59.3331 147.314C59.3331 147.314 58.2794 146.571 57.2878 146.199C56.2961 145.827 56.1722 145.208 56.4821 143.721C56.792 142.233 62.37 140.375 62.37 140.375L62.1221 141.304C62.1221 141.304 58.2175 143.473 57.7836 144.774C57.4117 146.013 59.0232 146.571 59.8289 146.757L59.3331 147.314ZM88.8349 177.613C86.0458 178.294 85.55 176.931 84.5583 173.771C83.5667 170.611 81.7693 167.947 81.5834 162.309C81.3974 156.67 81.8933 147.748 81.8933 147.748L83.1948 146.633C83.1948 146.633 83.1328 158.839 83.0089 161.379C82.8849 163.92 84.6823 174.515 86.2937 175.94C87.8432 177.365 88.2771 174.515 93.7931 176.807C95.2806 177.427 97.078 178.418 98.9993 179.534C94.4129 178.294 90.1984 177.303 88.8349 177.613Z" fill="#B26C47"/>
<path d="M95.0327 126.496C95.1567 128.169 89.8885 135.604 89.2067 136.595C88.525 137.587 87.4713 141.614 84.4344 144.34C81.4594 147.066 78.9183 149.173 74.2079 147.934C69.4976 146.695 61.6263 146.261 61.6263 146.261C61.6263 146.261 63.2997 144.216 63.4856 142.915C63.4856 142.915 62.6799 139.445 61.8122 137.339C60.9445 135.232 59.7049 133.187 59.581 132.506C59.581 132.382 59.519 132.258 59.519 132.134C59.3331 131.329 58.8992 129.965 58.7133 128.292C58.5273 126.372 57.4117 122.406 57.7216 120.485C58.0315 118.565 58.7133 116.83 59.1471 115.962C59.581 115.095 62.6799 108.651 63.0518 108.341C63.4237 108.031 64.6632 106.854 65.5929 108.031C66.5226 109.209 64.0434 112.431 63.8575 113.298C63.6716 114.166 62.6179 118.503 62.6179 119.246C62.6799 119.99 62.6799 119.99 62.6799 119.99L63.4237 119.742C63.4237 119.742 67.8241 113.174 68.9397 112.121C70.1173 111.068 72.1626 109.147 74.1459 108.589C76.1293 108.031 77.8027 107.908 78.1126 109.085C78.4225 110.262 77.9266 111.377 77.6167 111.749C77.2449 112.183 76.811 112.617 76.811 112.617C76.811 112.617 79.4141 112.121 80.4678 112.926C81.5214 113.67 82.699 114.661 82.575 115.715C82.575 115.777 82.575 115.838 82.513 115.9C82.2032 116.954 81.7073 117.511 81.6453 117.573C81.7693 117.573 85.2401 116.52 86.4177 118.379C87.6573 120.3 88.2151 121.229 87.4713 121.973C86.7276 122.716 83.8146 125.442 83.0709 126.062C82.3271 126.682 79.662 131.267 79.4761 132.382C79.2902 133.497 79.2902 133.497 79.2902 133.497L81.9552 135.418C81.9552 135.418 83.9386 131.824 85.0542 130.647C86.1698 129.47 89.7645 124.699 90.5083 124.451C91.252 124.203 94.9707 124.761 95.0327 126.496Z" fill="#3C2922"/>
<path d="M140.215 177.737C140.215 177.737 136.434 174.019 135.319 171.912C134.203 169.868 133.335 168.752 134.389 165.159C135.443 161.565 138.232 157.042 140.773 153.758C143.314 150.474 145.545 148.182 149.14 147.252C152.735 146.323 151.929 146.881 151.929 146.881C151.929 146.881 140.401 159.087 139.719 162.928C139.038 166.77 139.595 173.276 140.277 174.887C140.959 176.498 141.145 177.241 141.145 177.241L140.215 177.737Z" fill="#3C2922"/>
<path d="M80.0339 132.629C80.0339 132.382 82.637 126.805 84.1245 125.752C85.55 124.698 88.339 122.654 88.339 122.654L89.5166 124.389C89.5166 124.389 84.4964 130.151 83.9386 131.328C83.3807 132.505 82.2032 134.426 82.2032 134.426L80.0339 132.629Z" fill="#3C2922"/>
<path d="M89.7645 136.967C89.4546 136.905 94.7848 129.655 94.7848 129.655C94.7848 129.655 95.9004 126.867 95.6525 126.062C95.4046 125.256 98.1316 125.752 98.5035 126.867C98.8754 127.982 98.6894 129.284 99.0613 130.647C99.4332 132.01 100.797 133.683 99.6811 135.17C98.5655 136.657 96.8301 136.347 96.2723 135.975C95.7145 135.604 95.7145 135.604 95.7145 135.604C95.7145 135.604 91.8718 137.276 89.7645 136.967Z" fill="#3C2922"/>
</svg>
