<svg width="120" height="216" viewBox="0 0 120 216" fill="none" xmlns="http://www.w3.org/2000/svg">
<path d="M76.5322 23.931L76.6635 32.2581C76.6635 32.2581 76.0728 34.7924 76.4338 36.7343C76.7947 38.6763 77.1556 40.8485 77.6478 42.6588C78.14 44.469 78.0416 45.8185 77.6478 46.6413C77.2541 47.4313 74.5963 50.6568 74.5963 50.6568C74.5963 50.6568 72.4963 51.3809 71.315 51.4467C70.101 51.5126 67.2135 51.5126 66.3275 50.953C65.4416 50.3935 62.4885 49.8998 61.34 49.3403C60.2244 48.7807 58.4525 48.682 57.9604 48.0566C57.4682 47.3983 56.3525 46.6084 56.3525 46.6084L59.076 43.8766C59.076 43.8766 59.9619 41.3752 59.9619 40.9144C59.9619 40.4207 59.5682 40.2561 59.5682 40.2561C59.5682 40.2561 56.9104 41.8689 56.7463 42.593C56.5822 43.3171 56.09 43.5475 56.09 43.5475L54.0885 41.7701C54.0885 41.7701 55.5322 41.5397 55.3682 40.8156C55.2041 40.0915 55.2041 40.0915 55.2041 40.0915C55.2041 40.0915 53.9244 40.8815 53.3666 39.6966C52.8088 38.4788 53.0385 38.8079 53.6947 38.018C54.351 37.2281 55.1385 37.8534 55.3025 35.9115C55.4666 33.9696 56.2541 33.805 55.6963 33.1797C55.1385 32.5214 54.0885 33.9696 53.5307 32.9493C52.9729 31.896 52.8088 30.6124 53.3666 30.2833C53.9244 29.9541 55.2041 30.5137 55.3682 30.2175C55.5322 29.8883 56.6479 28.7034 56.5822 28.3743C56.5166 28.0452 55.3025 28.7693 54.8104 28.5389C54.3182 28.3085 54.8104 27.1565 54.8104 27.1565C54.8104 27.1565 55.8604 26.2678 56.0244 25.6425C56.1885 24.9842 56.8119 22.1865 56.8119 22.1865C56.8119 22.1865 59.2072 21.627 59.3057 19.8497C59.3713 18.0723 59.3057 17.0191 61.4713 16.295C63.6369 15.5709 64.2932 14.9126 65.8025 14.781C67.3119 14.6164 70.5275 14.9455 71.2494 14.1227C71.9713 13.3328 72.6275 13.3328 71.7416 12.6745C70.8556 12.0162 69.2478 12.4441 70.2978 11.3909C71.3478 10.3376 72.2338 9.28441 73.1853 9.21858C74.1369 9.15275 74.8588 10.7326 75.1213 9.44898C75.351 8.16535 73.8416 8.00078 75.351 8.16535C76.8603 8.32992 77.1885 9.11984 78.1728 9.61355C79.1244 10.1073 80.0103 9.61354 80.0103 8.72488C80.0103 7.83621 82.1759 8.79071 82.7338 8.16535C83.2916 7.50708 85.2931 5.76266 86.5728 4.38028C87.8525 2.99791 88.9681 2.86626 90.1822 1.87885C91.3962 0.924358 92.4134 0.364827 95.1697 1.22058C97.8931 2.10925 100.945 2.60295 101.667 4.34737C102.388 6.12471 101.174 6.51967 101.502 7.73747C101.831 8.95527 105.506 9.0211 107.048 9.84394C108.557 10.6339 108.885 10.963 108.557 11.5225C108.229 12.0821 106.785 12.1808 107.835 13.629C108.885 15.0772 109.443 14.5177 111.215 15.8671C112.987 17.2495 114.66 17.6445 114.988 18.9281C115.317 20.2117 116.202 21.1004 115.317 21.4954C114.431 21.8903 113.807 22.0549 113.873 22.779C113.938 23.5031 115.874 23.5031 116.432 24.5563C116.99 25.6096 116.826 26.564 116.202 26.959C115.546 27.354 114.923 28.0781 115.645 29.1971C116.367 30.3162 119.976 34.0354 119.746 34.9899C119.517 35.9444 119.024 36.5039 118.368 36.4381C117.712 36.3723 117.252 36.6685 117.712 37.1622C118.204 37.6559 118.827 38.5446 118.434 39.17C118.04 39.8282 117.318 39.7295 117.318 39.7295L115.94 37.4914C115.94 37.4914 114.726 39.4333 114.89 41.046C115.054 42.6588 114.234 41.7701 115.776 42.6588C117.285 43.5475 117.876 43.4487 117.942 44.2716C118.007 45.0615 117.22 45.3248 117.22 45.3248C117.22 45.3248 116.104 43.4816 115.842 44.2057C115.612 44.9298 116.334 46.1476 115.349 46.5426C114.398 46.9376 113.676 46.773 112.298 46.9376C110.92 47.1021 110.788 45.3248 110.526 46.7072C110.296 48.0895 110.132 49.2086 110.69 49.9327C111.248 50.6568 113.184 52.6645 113.348 54.2773C113.512 55.8901 113.282 56.9433 113.282 56.9433C113.282 56.9433 112.56 58.8852 111.674 59.0498C110.788 59.2143 109.279 60.3334 108.951 60.3334C108.623 60.3334 107.113 56.3179 106.392 55.7584C105.67 55.1989 105.112 55.3634 105.112 55.3634L104.784 56.2521C104.784 56.2521 106.162 59.708 106.063 60.5967C105.998 61.4854 104.784 61.6499 104.784 61.6499L102.552 58.194C102.552 58.194 102.782 59.708 102.06 60.4321C101.338 61.1562 99.9603 61.6499 99.9603 61.6499C99.9603 61.6499 96.2525 58.5231 96.0228 58.194C95.7931 57.8649 95.0712 57.7003 95.0712 57.7003C95.0712 57.7003 94.0212 56.7458 93.6931 55.7584C93.365 54.8039 93.0369 53.5203 93.2994 52.3025C93.5619 51.0847 94.1853 49.0111 94.1853 49.0111C94.1853 49.0111 96.1212 47.0692 97.0728 45.3906C98.0244 43.712 98.2869 37.4255 98.1884 35.8786C98.1228 34.3646 97.9587 33.7721 97.9587 33.7721C97.9587 33.7721 96.4494 34.7266 95.7931 33.3772C95.1369 31.9948 94.5134 27.0907 94.5134 27.0907C94.5134 27.0907 92.2822 27.5844 91.6916 26.5311C91.1337 25.4779 91.0353 22.9765 91.0353 22.9765C91.0353 22.9765 89.9853 22.9106 89.4275 22.2524C88.8697 21.5941 88.2134 19.6851 88.2134 19.6851C88.2134 19.6851 86.6056 21.4624 85.3916 21.1991C84.1775 20.9687 82.6681 20.7054 82.6681 20.7054C82.6681 20.7054 80.6666 23.1081 79.8463 23.2069C79.0588 23.2727 77.7463 22.8119 77.7463 22.8119L76.5322 23.931Z" fill="#25191C"/>
<path d="M79.6166 46.4768C79.6166 46.8059 83.6197 50.4264 86.2775 51.3151C88.9353 52.2037 89.3947 52.2695 90.9369 51.4796C92.4463 50.6897 96.8759 46.9705 97.1056 45.3577C97.3353 43.7449 98.1556 41.6385 97.8931 37.7876C97.7291 35.2203 97.4009 34.7924 97.4009 34.7924C97.4009 34.7924 95.301 34.6608 94.6775 32.5543L94.0213 27.7818C94.0213 27.7818 92.2822 28.111 91.79 27.4856C91.2978 26.8602 90.4119 24.4576 90.5431 23.4372C90.5431 23.4372 88.5416 22.6144 88.2463 21.2979C88.2463 21.2979 86.2775 21.7916 85.7853 21.8903C85.0306 22.0549 83.1275 21.4624 83.2588 21.3308C83.2588 21.3308 81.1588 23.5031 80.3385 23.6676C79.5182 23.8322 78.3697 23.5689 78.3697 23.5689L77.1557 24.2601C77.1557 24.2601 77.4182 30.5466 77.4182 31.6985C77.4182 32.8505 76.8603 34.6937 77.0572 36.7343C77.0572 36.7343 78.5994 43.4487 78.665 44.3374C78.7307 45.226 79.6166 46.4768 79.6166 46.4768Z" fill="#613B05"/>
<path d="M75.0228 51.2163C75.0228 51.2163 76.6963 54.5735 76.9588 56.1204C77.2213 57.6674 77.2213 57.6674 77.2213 57.6674C77.2213 57.6674 82.1103 58.6877 85.6541 60.3992C89.2306 62.1107 89.7228 62.5715 89.7228 62.5715C89.7228 62.5715 93.004 59.5105 94.8087 58.6548C94.8087 58.6548 93.2994 56.7129 93.1025 55.8571C92.9056 55.0014 92.84 52.105 93.1681 50.9859C93.1681 50.9859 90.5759 52.7303 89.6244 52.6316C88.64 52.5329 85.1291 52.1379 83.1275 50.3935C81.1259 48.682 78.7963 46.3451 78.7963 46.3451L75.0228 51.2163Z" fill="#613B05"/>
<path d="M25.0167 132.052C25.0167 132.052 23.8354 135.245 22.8839 137.976C21.9323 140.708 20.6526 142.025 17.6667 146.534C14.7136 151.043 12.9417 156.375 11.3995 161.378C9.85734 166.348 9.4964 169.211 9.4964 169.211C9.4964 169.211 12.6792 171.581 15.0417 171.812C17.4042 172.042 17.9948 171.812 17.9948 171.812C17.9948 171.812 21.6698 165.163 24.4917 161.016C27.3464 156.869 28.6261 152.36 28.6261 152.36C28.6261 152.36 33.1214 148.904 34.762 145.612C36.4026 142.288 38.076 137.779 38.076 137.779C38.076 137.779 32.2682 135.87 30.4964 134.915C28.7901 133.961 25.0167 132.052 25.0167 132.052Z" fill="#613B05"/>
<path d="M55.8932 143.473C55.8932 143.473 55.237 151.833 55.8932 156.112C56.5495 160.391 59.3057 161.247 59.4042 165.229C59.5026 169.212 59.4042 168.85 60.4542 174.083C61.5042 179.316 62.8167 187.182 62.8167 187.182C62.8167 187.182 66.6885 188.334 69.1495 188.038C71.6104 187.742 72.0041 186.886 72.0041 186.886C72.0041 186.886 72.7588 173.688 72.6604 169.574C72.562 165.492 71.0526 163.287 70.5604 159.7C70.101 156.079 70.6588 148.114 70.6588 148.114L55.8932 143.473Z" fill="#613B05"/>
<path d="M58.9776 51.7759C58.9776 51.7759 57.3698 54.7052 55.8932 57.2066C54.4167 59.7081 53.2682 63.8223 49.1667 67.7719C45.0651 71.7544 45.1964 72.4785 42.8667 73.9267C40.537 75.4078 34.9589 81.9247 31.5792 84.5907C27.7729 87.6188 23.3433 89.9556 22.9167 90.0873C22.4901 90.219 22.4901 90.219 22.4901 90.219C22.4901 90.219 16.6495 87.8821 15.5995 87.3555C14.4839 86.7959 11.5308 85.4465 10.5792 85.4465C7.85579 85.4794 3.98392 87.915 3.62298 88.8037C3.26204 89.6923 3.98392 89.9886 4.83704 89.7911C5.03392 89.7582 5.82142 89.6594 6.34642 89.6265C7.26516 89.5607 7.65891 89.3961 7.92141 89.1986C9.00423 88.5075 9.56204 88.4745 10.2183 88.4087C10.2183 88.4087 11.137 89.0999 12.3511 89.8898C13.5323 90.6797 16.4855 91.7988 16.4855 91.7988L16.4198 92.4242C16.4198 92.4242 11.6948 92.6875 11.0058 92.9837C10.3167 93.3128 9.69328 93.9382 10.1855 94.5965C10.6448 95.2877 12.6136 95.1231 13.8277 94.9585C15.0089 94.7939 16.223 94.8927 16.387 94.8927C16.5511 94.8927 19.8323 95.7155 22.0636 95.6168C24.2948 95.518 29.9386 92.5887 36.5667 89.5936C43.1948 86.5985 45.3276 85.0186 45.3276 85.0186C45.3276 85.0186 45.8854 83.0438 48.1167 80.8057C50.3479 78.5675 52.776 77.4485 52.776 77.4485C52.776 77.4485 54.351 75.2104 54.9088 73.5976C55.4667 72.0177 55.762 71.2607 55.762 71.2607L56.1229 70.405L57.6323 70.5037L61.537 64.1185C61.537 64.1185 62.751 61.1233 62.2916 59.4447C61.8323 57.7661 61.8323 55.4293 61.8323 55.4293L62.1932 54.2115L61.3401 53.1912L58.9776 51.7759Z" fill="#613B05"/>
<path d="M103.963 75.5724C103.963 73.3343 103.57 71.3265 103.57 71.3265L101.929 72.5114C101.929 72.5114 98.0572 78.3371 97.0072 78.7979C95.9572 79.2587 95.3665 78.9625 94.6119 79.5549C93.8572 80.1474 93.1353 80.9044 93.1353 80.9044C93.1353 80.9044 93.2994 90.1531 92.5447 94.6294C91.79 99.1056 90.7728 99.5664 92.5447 107.169C94.3165 114.772 95.8259 122.54 95.6619 124.647C95.4978 126.753 95.6619 128.234 94.6119 129.584C93.5619 130.933 92.3806 132.414 91.9212 134.521C91.4619 136.627 90.0837 142.387 90.0837 142.387C90.0837 142.387 90.6087 142.979 91.3306 142.782C92.0525 142.552 92.3478 142.486 92.8728 141.268C93.3978 140.05 94.0869 138.306 94.4478 137.483C94.8087 136.66 95.465 136.726 95.465 136.726C95.465 136.726 94.94 139.425 95.1369 141.005C95.3337 142.584 95.8587 145.152 95.6947 146.106C95.6947 146.106 94.7431 145.283 94.7103 144.691C94.6447 144.099 93.529 144 93.4962 144.197C93.4306 144.395 92.5447 143.835 92.2822 144.888C92.2166 145.086 92.9712 147.884 94.2837 148.344C95.5962 148.805 97.04 148.706 97.2697 148.41C97.3681 148.246 97.6306 147.423 97.8275 146.732C97.9587 146.567 98.09 146.37 98.1884 146.106C98.9103 144.131 98.8447 142.157 99.2384 141.433C99.6322 140.708 99.829 139.655 99.8947 138.832C99.9603 138.01 100.485 131.888 100.485 129.419C100.485 126.918 102.126 116.287 102.257 106.84C102.388 97.427 101.863 97.2954 101.47 94.004C101.109 90.7456 103.963 77.8105 103.963 75.5724Z" fill="#613B05"/>
<path d="M90.7729 127.313C90.7729 127.313 86.376 127.839 85.5557 127.642C85.5557 127.642 86.0807 126.391 85.9822 120.401C85.8838 114.443 86.4744 101.541 86.4744 101.541C86.4744 101.541 87.5244 103.088 88.2463 104.043C88.9682 104.964 90.1494 105.03 90.1494 105.03C90.1494 105.03 87.951 95.3864 88.0166 93.4445C88.0822 91.5355 88.0822 91.5355 88.0822 91.5355C88.0822 91.5355 83.1276 85.7098 77.451 83.735C71.7416 81.7602 65.4745 79.8841 63.7354 79.2917C61.9964 78.6992 51.3979 78.8967 51.3979 78.8967C50.9386 79.3575 48.7073 81.1348 47.2964 83.0109C45.8854 84.887 45.0651 86.4339 43.8839 87.5859C42.7026 88.7708 36.6323 99.5006 33.3511 102.792C30.0699 106.083 27.1495 108.651 25.4761 110.856C23.8355 113.061 17.9949 124.252 17.9949 126.259C17.9949 126.259 30.7917 134.521 35.3526 135.969C39.9136 137.417 43.9495 137.977 46.312 138.339C48.6745 138.701 51.2339 139.622 51.2339 139.622L50.8729 141.268C50.8729 141.268 68.0667 146.6 72.8245 147.884C77.5823 149.167 79.7807 149.727 82.3401 150.648C84.8994 151.57 87.6557 151.57 88.3775 151.735C89.0994 151.932 90.0182 151.537 90.0182 151.537C90.0182 151.537 89.9197 143.704 89.69 140.972C89.526 138.339 90.7729 127.313 90.7729 127.313ZM59.7979 113.489C58.7807 115.266 55.8932 115.069 52.5464 114.509C49.1995 113.95 46.312 113.851 44.6386 110.922C42.9651 108.025 43.9823 103.417 45.7542 100.192C47.5261 96.9334 49.4292 92.2596 49.6589 91.8976C49.6589 91.8976 50.8729 94.037 51.1026 94.794C51.3323 95.5839 51.8901 96.8017 54.7776 97.2625C57.6651 97.7233 61.7995 95.1231 61.7995 95.1231C61.7995 95.1231 62.0292 98.4803 62.2589 102.726C62.4885 106.972 60.7823 111.712 59.7979 113.489Z" fill="#915808"/>
<path d="M61.0448 96.0777C61.0448 96.0777 57.2058 98.4804 54.5151 98.0525C51.8245 97.6246 51.2995 96.5055 51.1027 95.7814C50.9058 95.0573 49.7573 93.0825 49.7573 93.0825C49.5605 93.3787 47.7886 97.7562 46.148 100.751C44.5073 103.747 43.5558 108.025 45.098 110.724C46.6402 113.423 49.3308 113.522 52.448 114.048C55.5651 114.575 58.2558 114.773 59.1745 113.127C60.0933 111.481 61.6683 107.104 61.4386 103.154C61.2417 99.1715 61.0448 96.0777 61.0448 96.0777Z" fill="#915808"/>
<path d="M59.4698 50.9201C59.4698 50.9201 61.9963 52.2695 62.3572 53.0265C62.7182 53.8165 62.3572 55.0343 62.3572 56.1862C62.3572 57.3382 63.276 60.2017 63.1447 61.0904C63.0135 62.0119 61.9963 64.3159 61.4385 65.3362C60.8807 66.3565 58.2229 70.7999 58.2229 70.7999L56.4838 71.3594C56.4838 71.3594 56.1557 74.4862 55.4666 75.3749C54.7776 76.2635 52.9401 78.2054 52.9401 78.2054C52.9401 78.2054 60.2901 78.0409 62.9807 78.5017C65.6713 78.9625 77.1229 81.6614 81.7822 85.1831C86.4416 88.7049 87.6228 90.4493 87.6228 90.4493L90.5431 84.7223L90.0838 81.9247C90.0838 81.9247 92.9385 82.0563 93.1353 80.9373C93.3322 79.8182 94.7431 78.9954 95.7931 78.5346C96.8431 78.0738 97.3681 78.1067 98.5166 76.856C99.6978 75.6053 101.896 72.6101 101.896 72.6101L104.193 70.6682L103.865 66.3895L104.357 63.1968L103.012 61.8474L100.42 62.4398L95.4978 58.9181L89.6572 63.2627C89.6572 63.2627 85.8182 61.0904 82.8978 59.9055C79.9775 58.7206 76.7947 58.3256 76.7947 58.3256C76.7947 58.3256 75.9744 55.3963 75.5479 53.8165C75.1213 52.2366 74.5307 51.8087 74.5307 51.8087C74.5307 51.8087 70.3635 52.829 68.1979 52.2366C66.0322 51.6442 64.5229 50.8871 64.5229 50.8871L60.0276 49.8668L59.4698 50.9201Z" fill="#915808"/>
<path d="M8.93858 169.903C8.93858 169.903 8.7417 174.116 7.52764 176.123C6.31358 178.131 3.91827 183.496 3.91827 183.496C3.91827 183.496 8.93858 182.048 11.3995 183.628C13.3683 184.878 13.9261 185.701 13.9261 185.701C13.9261 185.701 13.1386 182.081 14.6479 178.888C16.1901 175.663 18.1261 172.536 18.1261 172.536C18.1261 172.536 14.3854 173.128 12.6464 171.878C10.9401 170.594 8.93858 169.903 8.93858 169.903Z" fill="#FBF4E9"/>
<path d="M0.243286 194.884C0.243286 194.884 0.308913 196.431 0.801099 196.925C1.29329 197.419 9.62765 199.953 10.9073 199.755C12.187 199.558 12.3839 198.538 12.3839 198.538C12.3839 198.538 7.16671 198.011 5.65734 197.386C4.11516 196.793 0.243286 194.884 0.243286 194.884Z" fill="#5C3D2F"/>
<path d="M3.62297 184.154C3.62297 184.154 1.16203 189.717 0.899535 190.803C0.669848 191.889 0.407349 194.358 0.407349 194.358C0.407349 194.358 4.57453 196.727 5.46047 197.089C6.37921 197.451 12.2198 198.176 12.2198 198.176C12.2198 198.176 13.3683 192.844 13.4995 191.165C13.6308 189.486 13.9917 186.524 13.9917 186.524C13.9917 186.524 11.8917 184.056 10.1198 183.628C8.38077 183.2 3.62297 184.154 3.62297 184.154Z" fill="#5F3C31"/>
<path d="M62.8166 187.808C62.8822 188.038 63.2104 191 62.6526 193.173C62.0947 195.345 61.701 198.373 61.701 198.373L61.5369 199.426C61.5369 199.426 66.7541 196.629 71.8729 199.196C71.8729 199.196 71.2166 192.449 71.3807 190.902C71.5447 189.355 71.9713 187.544 71.9713 187.544C71.9713 187.544 70.7244 188.499 68.7557 188.499C66.7869 188.499 62.8166 187.808 62.8166 187.808Z" fill="#FBF4E9"/>
<path d="M61.3072 200.216C61.3072 200.216 60.9463 211.538 61.6025 212.262C61.6025 212.262 64.6869 214.171 67.8041 213.974C70.9213 213.777 72.8572 211.473 72.8572 211.473L71.9056 199.788C71.9056 199.788 68.2306 198.603 66.5572 198.603C64.8838 198.669 61.3072 200.216 61.3072 200.216Z" fill="#5F3C31"/>
<path d="M61.4713 212.394C61.4713 212.526 61.3729 212.723 61.4713 212.954C61.5697 213.184 61.7994 213.447 62.3244 213.744C63.3416 214.336 65.5072 215.949 69.9697 214.797C72.0041 214.27 73.251 212.723 73.251 212.559C73.251 212.394 72.9557 211.736 72.9557 211.736C72.9557 211.736 69.8385 214.303 67.3119 214.27C64.8182 214.237 62.6526 212.888 62.0947 212.625C61.5369 212.361 61.4713 212.263 61.4713 212.394Z" fill="#5C3D2F"/>
<path d="M60.6182 105.721C60.6182 105.392 60.651 105.03 60.6838 104.701C60.7166 104.536 60.7166 104.372 60.7494 104.207V104.174C60.8151 104.141 60.8479 104.141 60.9135 104.108C61.0119 104.075 61.0776 104.043 61.176 104.01C61.3073 103.944 61.3729 103.845 61.4385 103.713C61.4385 103.516 61.4385 103.286 61.4385 103.088C61.3401 101.179 61.2416 99.5005 61.176 98.2169C61.1104 98.151 61.0448 98.0852 60.9791 98.0194C60.8479 97.8877 60.7166 97.789 60.5526 97.6902C60.3229 97.5257 60.0604 97.394 59.7979 97.2294C59.6338 97.1307 59.437 97.032 59.2729 96.9332C59.2073 96.9661 59.1416 96.9991 59.076 97.032C59.0432 97.1307 59.0104 97.2624 58.9776 97.3611C58.912 97.4928 58.8791 97.5915 58.8135 97.6902C58.7151 97.8548 58.6166 98.0194 58.551 98.1839C58.4526 98.3485 58.4198 98.5131 58.3541 98.6776C58.3213 98.8422 58.2885 98.9739 58.2557 99.1384C58.2229 99.3359 58.2229 99.5663 58.2557 99.7638C58.2885 100.027 58.3541 100.257 58.4198 100.488C58.4854 100.62 58.5182 100.784 58.5838 100.916C58.6495 101.08 58.7151 101.212 58.7807 101.377C58.8463 101.508 58.9119 101.64 59.0104 101.739C59.1416 101.936 59.3385 102.068 59.5682 102.166C59.7323 102.232 59.8963 102.265 60.0604 102.298C60.2244 102.331 60.3557 102.331 60.5198 102.331H60.5526C60.5526 102.364 60.5854 102.364 60.5854 102.397C60.651 102.496 60.6838 102.594 60.7166 102.726C60.7823 102.923 60.7823 103.088 60.7823 103.286C60.7823 103.549 60.7494 103.812 60.7494 104.075V104.108V104.141V104.174C60.7166 104.339 60.7166 104.503 60.6838 104.668C60.651 104.832 60.651 104.997 60.6182 105.162C60.5854 105.721 60.5854 106.281 60.6182 106.84C60.6182 106.939 60.651 107.071 60.651 107.169V107.202L60.6182 107.169C60.4869 107.038 60.3557 106.906 60.2573 106.774C60.2244 106.741 60.1916 106.709 60.126 106.676C60.0604 106.61 59.9948 106.577 59.9291 106.544H59.8963C59.8963 106.544 59.8963 106.544 59.8963 106.511C59.9619 106.379 59.9948 106.248 59.9948 106.116C60.0276 105.952 59.9948 105.754 59.9619 105.589C59.8635 105.129 59.6994 104.734 59.4041 104.372C59.0432 103.944 58.6166 103.615 58.0916 103.417C57.8948 103.351 57.6979 103.286 57.501 103.253C57.2713 103.22 57.0745 103.22 56.8448 103.253C56.6807 103.253 56.5166 103.286 56.3854 103.351C56.2541 103.384 56.1229 103.417 56.0245 103.45C55.8932 103.483 55.7948 103.483 55.6635 103.516C55.5651 103.516 55.4667 103.549 55.3354 103.549C55.1057 103.582 54.876 103.615 54.6792 103.746C54.6463 103.779 54.5807 103.779 54.5479 103.812C54.4167 103.878 54.2854 103.977 54.1542 104.043C54.0229 104.108 53.8917 104.207 53.7276 104.24C53.5963 104.306 53.4323 104.339 53.2682 104.372C53.2354 104.372 53.2354 104.372 53.2354 104.405C53.2354 104.438 53.2354 104.438 53.2682 104.438C53.301 104.438 53.3338 104.47 53.3667 104.47C53.4651 104.536 53.5635 104.602 53.6292 104.701C53.6948 104.8 53.7604 104.865 53.826 104.964C53.8917 105.063 53.9573 105.162 54.0229 105.26C54.351 105.754 54.712 106.149 55.2042 106.478C55.4995 106.709 55.8276 106.873 56.1557 107.038C56.287 107.104 56.4182 107.136 56.5823 107.202C56.7135 107.235 56.8448 107.268 56.976 107.301C57.1401 107.334 57.2713 107.367 57.4354 107.4C57.7307 107.433 58.0588 107.433 58.3541 107.4C58.6166 107.367 58.8791 107.334 59.1088 107.235C59.2401 107.169 59.4041 107.136 59.5354 107.038C59.6994 106.939 59.8307 106.807 59.8963 106.643C59.8963 106.643 59.8963 106.643 59.9291 106.61H59.9619C60.0276 106.61 60.0604 106.643 60.126 106.676C60.1916 106.709 60.2244 106.774 60.2901 106.807C60.4541 106.972 60.5854 107.136 60.7494 107.301C60.7823 107.334 60.7823 107.334 60.7823 107.367C60.8151 107.531 60.8151 107.696 60.8479 107.828C60.8807 107.992 60.9135 108.19 60.9463 108.354C60.9463 108.321 60.9791 108.256 60.9791 108.223C60.9791 108.157 60.9463 108.091 60.9463 108.025C60.6838 107.367 60.6182 106.544 60.6182 105.721Z" fill="#FBF4E9"/>
<path d="M59.1088 111.317C58.9776 111.349 58.8463 111.382 58.7479 111.415C58.5838 111.481 58.4526 111.547 58.3213 111.646C58.3213 111.646 58.3213 111.646 58.2885 111.646C58.2885 111.613 58.2557 111.613 58.2557 111.58C58.0916 111.152 57.8619 110.757 57.5338 110.461C57.4026 110.329 57.2713 110.23 57.1072 110.132C56.8776 109.967 56.6151 109.835 56.3526 109.671C56.1557 109.572 55.9588 109.473 55.7947 109.342C55.7619 109.342 55.7619 109.309 55.7291 109.309L55.6963 109.276H55.6635V109.309C55.6635 109.342 55.6635 109.342 55.6635 109.375C55.6635 109.408 55.6635 109.44 55.6307 109.473C55.5979 109.572 55.5651 109.704 55.5323 109.802C55.4666 109.934 55.4338 110.033 55.3682 110.132C55.2698 110.296 55.1713 110.461 55.1057 110.625C55.0072 110.79 54.9744 110.954 54.9088 111.119C54.876 111.284 54.8432 111.415 54.8104 111.58C54.7776 111.777 54.7776 112.008 54.8104 112.205C54.8432 112.469 54.9088 112.699 54.9744 112.929C55.0401 113.061 55.0729 113.226 55.1385 113.357C55.2041 113.522 55.2698 113.653 55.3354 113.818C55.401 113.95 55.4666 114.081 55.5651 114.18C55.6307 114.246 55.6635 114.312 55.7291 114.377C57.3369 114.41 58.6166 114.114 59.2072 113.061C59.4697 112.6 59.7651 111.909 60.0932 111.086C59.8963 111.152 59.7322 111.218 59.5354 111.251C59.3713 111.284 59.2401 111.317 59.1088 111.317Z" fill="#FBF4E9"/>
<path d="M46.9354 111.646C46.6401 111.382 46.3448 111.152 45.951 111.02C45.8854 110.987 45.8526 110.987 45.7869 110.954C45.7213 110.921 45.6557 110.889 45.5901 110.856L45.5573 110.823C45.5901 110.79 45.6557 110.757 45.7213 110.757C46.1479 110.79 46.5744 110.757 47.0338 110.724C47.2307 110.724 47.4276 110.691 47.6573 110.691C47.8213 110.691 48.0182 110.691 48.1822 110.658C48.3463 110.625 48.5104 110.592 48.6416 110.527C48.8713 110.428 49.0354 110.296 49.1666 110.099C49.1666 110.099 49.1666 110.099 49.1994 110.066C49.2322 110.066 49.2322 110.099 49.2322 110.132C49.2979 110.263 49.3635 110.395 49.4291 110.527C49.9213 111.382 50.6104 111.942 51.5619 112.205C51.7916 112.271 51.9885 112.304 52.251 112.304C52.3494 112.304 52.4151 112.271 52.5135 112.271C52.6776 112.238 52.8088 112.139 52.9073 112.008C53.0057 111.909 53.1041 111.777 53.2026 111.646C53.301 111.481 53.3994 111.284 53.4651 111.086C53.6291 110.559 53.7276 110 53.7604 109.44C53.7604 109.111 53.7276 108.749 53.6619 108.42C53.4322 107.433 52.9072 106.676 52.0541 106.149C51.6604 105.886 51.2338 105.754 50.7744 105.655C50.5776 105.622 50.3807 105.589 50.1838 105.589C50.0526 105.589 49.9541 105.589 49.8229 105.589C49.7244 105.589 49.6588 105.622 49.5604 105.655C49.3963 105.721 49.2979 105.853 49.2322 106.017C49.2322 106.05 49.1994 106.116 49.1994 106.149C49.1994 106.149 49.1994 106.182 49.1666 106.182C49.0682 106.182 48.9697 106.182 48.9041 106.149C48.7401 106.116 48.576 106.05 48.4119 105.984C48.3791 105.984 48.3463 105.952 48.3135 105.919C48.2479 105.754 48.1494 105.589 48.0838 105.425C47.9854 105.227 47.8869 105.063 47.7229 104.931C47.7229 104.931 47.7229 104.898 47.6901 104.898C47.7557 104.865 47.8213 104.832 47.8869 104.8C47.9526 104.767 48.0182 104.734 48.0838 104.701C48.1494 104.668 48.2151 104.635 48.2807 104.569C48.3463 104.536 48.3791 104.47 48.4448 104.438C48.5104 104.372 48.5432 104.339 48.576 104.273C48.6088 104.273 48.6416 104.273 48.6416 104.306C48.9369 104.405 49.1994 104.503 49.4947 104.569C49.6588 104.602 49.8557 104.668 50.0526 104.668C50.3151 104.668 50.5776 104.602 50.7744 104.438C50.8401 104.372 50.9057 104.306 50.9713 104.24C51.0369 104.141 51.1354 104.043 51.201 103.944C51.3979 103.648 51.5947 103.351 51.8244 103.055C51.9885 102.792 52.1854 102.529 52.3494 102.232C52.4807 102.035 52.5791 101.837 52.6447 101.607C52.7432 101.344 52.8088 101.047 52.8088 100.751C52.8088 100.554 52.776 100.323 52.7104 100.126C52.6776 99.9283 52.5791 99.7309 52.5135 99.5334C52.4479 99.4346 52.3822 99.303 52.2838 99.2372C52.0869 99.0726 51.8901 99.0068 51.6276 99.0726C51.4963 99.1055 51.3979 99.1384 51.2666 99.2042C51.1354 99.2701 51.0041 99.3688 50.9057 99.4675C50.7744 99.5663 50.6432 99.665 50.5119 99.7967C50.3479 99.9283 50.1838 100.06 49.9869 100.192C49.9213 100.257 49.8229 100.29 49.7573 100.356C49.6916 100.422 49.5932 100.488 49.5276 100.554C49.3963 100.685 49.3307 100.85 49.2979 101.047C49.2979 101.179 49.2651 101.278 49.2651 101.409C49.2651 101.64 49.2323 101.87 49.1338 102.101C49.101 102.199 49.0682 102.298 49.0354 102.397C48.9369 102.594 48.8713 102.792 48.7729 102.989C48.6744 103.22 48.576 103.483 48.5104 103.746C48.4776 103.911 48.4448 104.075 48.4448 104.24C48.4448 104.273 48.4447 104.306 48.4119 104.339C48.3463 104.438 48.2807 104.503 48.1822 104.569C48.0182 104.701 47.7885 104.8 47.5916 104.865C47.5588 104.865 47.526 104.865 47.4932 104.865C47.3291 104.8 47.1651 104.8 47.001 104.832C46.8697 104.865 46.7385 104.931 46.6401 104.997C46.5088 105.096 46.3776 105.195 46.2463 105.293C46.0494 105.491 45.8526 105.688 45.6885 105.886C45.6885 105.919 45.6557 105.919 45.6229 105.952C45.5573 105.952 45.4588 105.952 45.3932 105.952C45.2291 105.984 45.0323 106.017 44.8682 106.083C44.7041 106.149 44.5401 106.248 44.4088 106.379C44.2448 107.992 44.4416 109.539 45.1635 110.757C45.8854 112.008 46.8369 112.699 47.9854 113.127C47.8541 112.863 47.6901 112.6 47.526 112.37C47.2963 112.073 47.1323 111.843 46.9354 111.646ZM47.4276 108.486C47.4604 108.453 47.526 108.387 47.5588 108.354C47.7229 108.255 47.8541 108.124 47.9854 107.992C48.1494 107.795 48.2807 107.597 48.4119 107.367C48.4119 107.334 48.4448 107.334 48.4448 107.301C48.5432 107.136 48.5432 107.005 48.5104 106.807C48.4776 106.61 48.4119 106.412 48.3791 106.215C48.3791 106.182 48.3791 106.182 48.3463 106.149C48.3463 106.149 48.3463 106.149 48.3463 106.116C48.3791 106.116 48.3791 106.116 48.4119 106.116C48.6088 106.149 48.8385 106.215 49.0354 106.248C49.0682 106.248 49.1338 106.281 49.1666 106.281C49.1994 106.281 49.1994 106.281 49.2322 106.314C49.2322 106.346 49.2322 106.346 49.2322 106.379C49.1338 106.676 49.0682 106.939 49.0026 107.235C48.9697 107.4 48.9369 107.564 48.9369 107.729C48.9369 107.861 48.9369 107.959 48.9369 108.091C48.9369 108.288 48.9697 108.519 49.0026 108.716V108.749C48.9697 108.749 48.9369 108.749 48.9041 108.716C48.7401 108.683 48.576 108.618 48.3791 108.585C48.051 108.519 47.7229 108.552 47.3947 108.716C47.3947 108.716 47.3948 108.716 47.3619 108.716C47.3291 108.716 47.3291 108.683 47.3291 108.65C47.3619 108.65 47.3619 108.552 47.4276 108.486Z" fill="#FBF4E9"/>
<path d="M44.9666 105.26C45.2948 105.227 45.6229 105.096 45.9182 104.964C46.2791 104.767 46.5744 104.536 46.8698 104.273C47.1651 104.01 47.3948 103.681 47.6244 103.351C48.2151 102.529 48.7729 101.278 48.9698 100.225C49.0026 100.126 49.0026 100.027 49.0026 99.9284C49.0026 99.8626 48.9698 99.7967 48.9369 99.7309C48.9041 99.698 48.8713 99.6651 48.8713 99.6322C48.8057 99.5663 48.7401 99.5005 48.6416 99.4676C48.4776 99.3688 48.3135 99.303 48.1494 99.2372C47.8213 99.1385 47.4932 99.0726 47.1651 99.0726C47.1323 99.0726 47.0666 99.0726 47.0338 99.0726C46.7385 99.6651 46.4432 100.258 46.1479 100.784C45.3932 102.134 44.8026 103.713 44.5073 105.326C44.6713 105.26 44.8026 105.26 44.9666 105.26Z" fill="#FBF4E9"/>
<path d="M89.0337 118.459C89.0337 118.459 89.0665 118.492 89.0337 118.459C89.0665 118.459 89.0993 118.459 89.0993 118.459C89.165 118.393 89.2306 118.327 89.2306 118.228C89.2306 118.163 89.2306 118.097 89.1978 118.031C89.1321 117.866 89.1321 117.669 89.165 117.504C89.1978 117.241 89.2306 117.011 89.2962 116.78C89.2962 116.747 89.2962 116.747 89.329 116.714C89.3618 116.55 89.4603 116.418 89.6243 116.319C89.7884 116.188 89.9525 116.089 90.1165 115.99C90.1493 115.99 90.1493 115.957 90.1822 115.957L90.1493 115.924C89.9525 115.826 89.7884 115.694 89.5915 115.595C89.5587 115.562 89.5259 115.562 89.4931 115.529C89.4603 115.529 89.4603 115.497 89.4275 115.497C89.4275 115.529 89.3946 115.529 89.3946 115.562C89.2634 115.826 89.1321 116.089 88.9353 116.319C88.8368 116.451 88.7384 116.583 88.64 116.714C88.5743 116.813 88.4759 116.879 88.4103 116.978C88.2462 117.142 88.1149 117.274 87.9181 117.373C87.9181 117.373 87.8853 117.373 87.8853 117.406C87.9181 117.438 87.9509 117.438 87.9509 117.438C88.1149 117.537 88.2462 117.603 88.4103 117.702C88.7056 117.866 88.9025 118.13 89.0337 118.459Z" fill="#915808"/>
<path d="M90.7072 123.758C90.5431 123.692 90.379 123.626 90.2478 123.527C90.1165 123.429 90.0181 123.297 89.9525 123.165C89.9197 123.133 89.9197 123.067 89.8868 123.034C89.854 123.001 89.854 122.968 89.8212 122.935C89.7556 122.968 89.69 122.968 89.6243 123.001C89.6243 123.001 89.5915 123.001 89.5915 123.034C89.4931 123.1 89.3618 123.165 89.2306 123.165C89.1322 123.165 89.0337 123.198 88.9681 123.198C88.8697 123.198 88.7712 123.198 88.6728 123.198C88.5415 123.198 88.3775 123.231 88.2462 123.264C88.115 123.297 88.0165 123.33 87.8853 123.363C87.754 123.396 87.6556 123.429 87.5243 123.462C87.4259 123.495 87.3275 123.495 87.229 123.495C87.0322 123.495 86.8681 123.429 86.704 123.297C86.6712 123.297 86.6712 123.264 86.6712 123.264L86.2775 127.016C86.2775 127.016 89.4931 127.609 90.4775 126.029C90.74 125.601 90.904 124.844 91.0353 123.824C90.8712 123.824 90.8056 123.791 90.7072 123.758Z" fill="#915808"/>
<path d="M88.5415 121.092C88.6072 121.125 88.64 121.125 88.7056 121.158C88.7712 121.191 88.8369 121.191 88.9025 121.224C88.9353 121.224 88.9353 121.224 88.9681 121.224C88.9681 121.158 88.9681 121.125 88.9025 121.059C88.5744 120.763 88.2791 120.434 87.9837 120.137C87.8525 120.006 87.7212 119.841 87.5572 119.677C87.4259 119.545 87.2947 119.413 87.1963 119.282C87.0978 119.15 86.9994 119.018 86.9338 118.854C86.8353 118.623 86.8025 118.426 86.8681 118.163V118.13C86.8353 118.13 86.8025 118.13 86.8025 118.163C86.7697 118.163 86.7697 118.163 86.7369 118.195L86.6713 120.927C86.9009 120.894 87.1306 120.861 87.3603 120.861C87.8197 120.861 88.1806 120.927 88.5415 121.092Z" fill="#915808"/>
<path d="M87.6228 113.39C88.0821 113.489 88.4759 113.653 88.8696 113.917C89.0337 114.015 89.1978 114.147 89.329 114.279C89.4275 114.345 89.4931 114.443 89.5915 114.542C89.6571 114.608 89.69 114.674 89.7228 114.772C89.7884 114.937 89.7884 115.102 89.69 115.233C89.6571 115.266 89.6571 115.332 89.6243 115.365V115.398C89.69 115.464 89.7556 115.529 89.854 115.562C90.0181 115.661 90.1821 115.727 90.3134 115.793C90.3462 115.826 90.379 115.826 90.4446 115.793C90.6087 115.727 90.7728 115.661 90.9697 115.595C91.0681 115.562 91.1993 115.529 91.2978 115.497C91.2978 115.102 91.2978 114.74 91.3306 114.377C91.0681 114.246 90.8056 114.114 90.5431 113.983C90.379 113.884 90.215 113.785 90.0837 113.686C89.8868 113.489 89.7556 113.291 89.7228 112.995C89.7228 112.896 89.7228 112.798 89.7228 112.732C89.7228 112.6 89.7556 112.501 89.7556 112.37C89.8212 112.008 89.8868 111.646 89.9525 111.284C90.0181 110.954 90.0837 110.658 90.1493 110.329C90.215 110.099 90.2806 109.901 90.379 109.671C90.5103 109.408 90.6743 109.144 90.8712 108.947C91.0025 108.815 91.1337 108.716 91.265 108.618C91.1337 107.136 91.0025 106.281 91.0025 106.281C91.0025 106.281 89.2962 106.215 88.6071 105.754C87.9181 105.293 87.0978 103.516 87.0978 103.516L86.9009 113.258C87.0978 113.291 87.3603 113.324 87.6228 113.39Z" fill="#915808"/>
<path d="M87.1962 123.494C87.2947 123.494 87.3931 123.494 87.4915 123.462C87.6228 123.429 87.7212 123.396 87.8525 123.363C87.9837 123.33 88.0822 123.297 88.2134 123.264C88.3447 123.231 88.5087 123.198 88.64 123.198C88.7384 123.198 88.8368 123.198 88.9353 123.198C89.0337 123.198 89.1322 123.198 89.1978 123.165C89.329 123.132 89.4603 123.1 89.5587 123.034C89.5587 123.034 89.5915 123.034 89.5915 123.001C89.6572 122.968 89.7228 122.968 89.7884 122.935C89.8212 122.968 89.854 123.001 89.854 123.034C89.8868 123.067 89.8868 123.132 89.9197 123.165C89.9853 123.33 90.0837 123.429 90.215 123.527C90.3462 123.626 90.5103 123.725 90.6743 123.758C90.7728 123.791 90.8384 123.824 90.9368 123.824C91.1993 121.618 91.1993 118.36 91.2322 115.529C91.1337 115.562 91.0025 115.562 90.904 115.628C90.74 115.694 90.5759 115.76 90.379 115.826C90.3462 115.826 90.3134 115.859 90.2478 115.826C90.0837 115.76 89.9197 115.694 89.7884 115.595C89.7228 115.562 89.6243 115.497 89.5587 115.431V115.398C89.5915 115.365 89.5915 115.299 89.6243 115.266C89.7228 115.102 89.7228 114.97 89.6572 114.805C89.6243 114.739 89.5915 114.641 89.5259 114.575C89.4603 114.476 89.3618 114.41 89.2634 114.312C89.0993 114.18 88.9681 114.048 88.804 113.95C88.4103 113.686 88.0165 113.522 87.5572 113.423C87.2947 113.357 87.065 113.357 86.8025 113.324L86.704 118.228C86.7368 118.228 86.7368 118.228 86.7697 118.195C86.8025 118.195 86.8025 118.163 86.8353 118.163V118.195C86.7697 118.426 86.8025 118.656 86.9009 118.887C86.9665 119.051 87.065 119.183 87.1634 119.314C87.2618 119.446 87.3931 119.578 87.5243 119.709C87.6556 119.841 87.8197 120.006 87.9509 120.17C88.2462 120.499 88.5415 120.796 88.8697 121.092C88.9353 121.125 88.9353 121.191 88.9353 121.256C88.9025 121.256 88.9025 121.256 88.8697 121.256C88.804 121.223 88.7384 121.223 88.6728 121.191C88.6072 121.158 88.5743 121.158 88.5087 121.125C88.1478 120.96 87.754 120.894 87.3603 120.894C87.1306 120.894 86.9009 120.927 86.6712 120.96L86.6384 122.869L86.6056 123.33C86.6384 123.33 86.6384 123.363 86.6384 123.363C86.8353 123.429 86.9993 123.494 87.1962 123.494ZM88.4103 117.702C88.279 117.603 88.115 117.504 87.9509 117.438C87.9181 117.438 87.9181 117.405 87.8853 117.405L87.9181 117.373C88.115 117.274 88.2462 117.109 88.4103 116.978C88.5087 116.879 88.5743 116.813 88.64 116.714C88.7384 116.583 88.8368 116.451 88.9353 116.319C89.0993 116.089 89.2634 115.826 89.3947 115.562C89.3947 115.529 89.4275 115.529 89.4275 115.497C89.4603 115.497 89.4603 115.529 89.4931 115.529C89.5259 115.562 89.5587 115.562 89.5915 115.595C89.7884 115.694 89.9525 115.826 90.1493 115.924L90.1822 115.957C90.1493 115.957 90.1493 115.99 90.1165 115.99C89.9525 116.089 89.7884 116.188 89.6243 116.319C89.4931 116.418 89.3947 116.55 89.329 116.714C89.329 116.747 89.329 116.747 89.2962 116.78C89.2306 117.011 89.1978 117.274 89.165 117.504C89.165 117.702 89.165 117.866 89.1978 118.031C89.2306 118.097 89.2306 118.163 89.2306 118.228C89.2306 118.327 89.165 118.426 89.0993 118.459C89.0665 118.459 89.0665 118.492 89.0337 118.492C89.0337 118.492 89.0337 118.492 89.0337 118.459C88.9025 118.13 88.7056 117.866 88.4103 117.702Z" fill="#FBF4E9"/>
<path d="M90.3135 109.704C90.215 109.901 90.1494 110.132 90.0838 110.362C90.0182 110.691 89.9525 110.987 89.8869 111.317C89.8213 111.679 89.7557 112.041 89.69 112.403C89.6572 112.534 89.6572 112.633 89.6572 112.765C89.6572 112.864 89.6572 112.962 89.6572 113.028C89.69 113.291 89.7885 113.522 90.0182 113.719C90.1494 113.851 90.3135 113.95 90.4775 114.016C90.7401 114.147 91.0026 114.312 91.2651 114.41C91.2651 114.114 91.2651 113.785 91.2979 113.522C91.3635 111.58 91.2979 109.901 91.1994 108.683C91.0682 108.782 90.9369 108.881 90.8057 109.013C90.6088 109.21 90.4447 109.44 90.3135 109.704Z" fill="#FBF4E9"/>
</svg>
