<svg width="164" height="125" viewBox="0 0 164 125" fill="none" xmlns="http://www.w3.org/2000/svg">
<path d="M47.9139 18.1072L92.7743 37.3243L74.8125 45.0193L30.21 25.904C31.2143 24.8793 32.4425 24.0515 33.8404 23.5154L47.9139 18.1004V18.1072ZM56.9932 14.6126L67.5111 10.5683C72.2132 8.76061 77.4186 8.76061 82.1207 10.5683L115.791 23.5154C117.182 24.0583 118.411 24.8726 119.415 25.904L101.392 33.6261L56.9932 14.6126ZM122.272 32.0654L78.2054 50.9501V101.504C79.5354 101.28 80.8518 100.92 82.1207 100.431L115.791 87.4776C117.711 86.7384 119.362 85.435 120.526 83.7392C121.69 82.0433 122.313 80.0345 122.312 77.9776V33.0154C122.312 32.6965 122.299 32.3776 122.265 32.0654H122.272ZM71.4196 101.504V50.9501L27.36 32.0654C27.3294 32.3812 27.3136 32.6982 27.3125 33.0154V77.9776C27.3128 80.0353 27.9367 82.0447 29.1021 83.7406C30.2675 85.4366 31.9195 86.7395 33.8404 87.4776L67.5043 100.431C68.78 100.92 70.0896 101.28 71.4196 101.504Z" fill="#F5A83D"/>
</svg>
