<svg width="110" height="110" viewBox="0 0 110 110" fill="none" xmlns="http://www.w3.org/2000/svg">
<path d="M31.5625 0C36.7425 0 41.7104 2.05775 45.3732 5.72057C49.036 9.38339 51.0938 14.3512 51.0938 19.5312C51.0938 24.7113 49.036 29.6791 45.3732 33.3419C41.7104 37.0047 36.7425 39.0625 31.5625 39.0625C26.3825 39.0625 21.4146 37.0047 17.7518 33.3419C14.089 29.6791 12.0312 24.7113 12.0312 19.5312C12.0312 14.3512 14.089 9.38339 17.7518 5.72057C21.4146 2.05775 26.3825 0 31.5625 0ZM59.1797 34.0703C57.1785 31.917 55.8254 29.2428 55.2758 26.355C54.7261 23.4672 55.0023 20.4829 56.0725 17.745C57.1428 15.0071 58.9636 12.6267 61.326 10.8771C63.6883 9.12761 66.4963 8.07997 69.4272 7.85458C72.3582 7.62919 75.2933 8.2352 77.8954 9.60298C80.4974 10.9708 82.6609 13.0448 84.1371 15.5869C85.6133 18.129 86.3425 21.036 86.2409 23.9738C86.1393 26.9117 85.2109 29.7613 83.5625 32.1953C75.4242 30.4554 66.9563 31.1066 59.1797 34.0703ZM33.1797 85.9375H32.0312C11.6094 85.9375 0.3125 78.8906 0.3125 64.6562V58.5938C0.3125 55.4857 1.54715 52.505 3.74484 50.3073C5.94253 48.1096 8.92324 46.875 12.0312 46.875H41.3828C35.021 54.5656 31.5473 64.2379 31.5625 74.2188C31.5625 78.2812 32.125 82.2109 33.1797 85.9375ZM74.5312 109.375C83.8553 109.375 92.7974 105.671 99.3905 99.078C105.984 92.4849 109.688 83.5428 109.688 74.2188C109.688 64.8947 105.984 55.9526 99.3905 49.3595C92.7974 42.7665 83.8553 39.0625 74.5312 39.0625C65.2072 39.0625 56.2651 42.7665 49.672 49.3595C43.079 55.9526 39.375 64.8947 39.375 74.2188C39.375 83.5428 43.079 92.4849 49.672 99.078C56.2651 105.671 65.2072 109.375 74.5312 109.375ZM92.9219 65.2656L69.4844 88.7031C69.1215 89.0669 68.6905 89.3555 68.2159 89.5524C67.7413 89.7494 67.2326 89.8507 66.7188 89.8507C66.2049 89.8507 65.6962 89.7494 65.2216 89.5524C64.747 89.3555 64.316 89.0669 63.9531 88.7031L56.1406 80.8906C55.4071 80.1571 54.9951 79.1623 54.9951 78.125C54.9951 77.0877 55.4071 76.0929 56.1406 75.3594C56.8741 74.6259 57.8689 74.2138 58.9062 74.2138C59.9436 74.2138 60.9384 74.6259 61.6719 75.3594L66.7188 80.4141L87.3906 59.7344C88.1241 59.0009 89.1189 58.5888 90.1562 58.5888C91.1936 58.5888 92.1884 59.0009 92.9219 59.7344C93.6554 60.4679 94.0674 61.4627 94.0674 62.5C94.0674 63.5373 93.6554 64.5321 92.9219 65.2656Z" fill="#F5A83D"/>
</svg>
