<svg width="112" height="104" viewBox="0 0 112 104" fill="none" xmlns="http://www.w3.org/2000/svg">
<path d="M58.0467 22.554C58.6234 21.674 59.2816 20.7467 60.0144 19.7922L60.123 19.6433C61.9234 17.2612 63.9956 15.0963 66.2977 13.1922C68.9643 11.0261 72.1942 9.17132 75.899 8.38609C77.1339 8.12886 78.4299 7.99347 79.7666 8.00024C88.9336 8.06116 95.8615 14.2956 100.109 19.535C100.645 20.1916 101.127 20.8279 101.575 21.4371L101.765 21.7011C102.219 22.3239 102.579 22.9737 102.85 23.6304L102.905 23.759C104.696 28.3079 102.26 33.2223 98.0667 35.3005C97.7425 35.4631 97.4095 35.6078 97.0693 35.7337L81.9244 41.2709L60.849 71.597C54.4844 80.7557 40.1266 74.4942 42.5489 63.6093L44.666 54.085L23.5974 60.0081C21.8325 60.5046 19.9763 60.5867 18.1743 60.2477C16.3723 59.9088 14.6735 59.1581 13.211 58.0545C11.7485 56.9509 10.5621 55.5243 9.74475 53.8867C8.92741 52.2491 8.50136 50.4449 8.5 48.6155V29.3909C8.5 21.2002 19.6144 18.6482 23.1971 26.0267L27.3022 34.4814L50.5896 28.362C53.5209 27.5971 56.1264 25.4648 58.0535 22.554H58.0467Z" fill="#F5A83D"/>
<path d="M31.1902 25.4174L31.8688 26.2839L48.8661 21.8162C49.7618 21.5861 51.112 20.7467 52.3877 18.8242C52.9984 17.8901 53.7176 16.8679 54.5183 15.8051L45.8738 9.89562C44.0701 8.661 41.934 8.00021 39.7466 8.00024C30.756 8.00024 25.6805 18.3233 31.197 25.4174H31.1902Z" fill="#F5A83D"/>
<path d="M13.589 85.8462C12.2393 85.8462 10.9449 86.3811 9.99054 87.3332C9.03616 88.2853 8.5 89.5766 8.5 90.9231C8.5 92.2696 9.03616 93.5609 9.99054 94.513C10.9449 95.4651 12.2393 96 13.589 96H98.406C99.7557 96 101.05 95.4651 102.004 94.513C102.959 93.5609 103.495 92.2696 103.495 90.9231C103.495 89.5766 102.959 88.2853 102.004 87.3332C101.05 86.3811 99.7557 85.8462 98.406 85.8462H13.589Z" fill="#F5A83D"/>
</svg>
